<svg xmlns="http://www.w3.org/2000/svg" width="512" height="512" viewBox="0 0 512 512"><title>Garden land</title><style>
#scenery-backdrop{fill:#eeeeee}
#rf-floor rect{fill:#B9D984}
#rf-floor path{stroke:#000}
#dither rect{fill:#F2CE68}#dither path{fill:#000}
#dense rect{fill:#B9D984}#dense path{fill:#000}
#terrain>polygon[fill="#000"]{fill:#ED927E;stroke:#000}
#terrain>polyline[stroke="#fff"]{stroke:#fff}
#terrain>path[fill="#000"]{fill:#7DB4DB}
#terrain>path[stroke="#fff"]{stroke:#fff}
#ground-details{stroke:#637A3C;opacity:.58}

#land-prop-0>path:first-child{fill:url(#dense)}
#land-prop-0>path:nth-child(2){fill:#B9D984}
#land-prop-0>path:nth-child(3){fill:url(#dense)}
#land-prop-1 path:first-child{stroke:#B9D984}
#land-prop-1 path:nth-child(2){fill:#ED927E}
#land-prop-1 rect{fill:#F2CE68}
#land-prop-2 path{fill:#7DB4DB;stroke:#000}
#land-prop-7>g>g:first-child polygon:first-child,#land-prop-7>g>g:first-child polygon:last-child{fill:#F2CE68}
#land-prop-7>g>g:first-child polygon:nth-child(2){fill:#ED927E;stroke:#000}
#land-prop-7>g>g:nth-child(2) path:first-child{fill:#B9D984}
#land-prop-7>g>g:nth-child(2) path:nth-child(2){fill:#B3A0D8}
#land-prop-7>g>g:nth-child(2) rect{fill:#F2CE68}
#land-prop-7>g>path{stroke:#B9D984}
#land-prop-7>g>path:last-child{fill:#ED927E;stroke:#000}
</style><rect id="scenery-backdrop" width="512" height="512" fill="#000"/><g id="landscape" data-scenery="0" data-floor="1"><defs><pattern id="dither" width="4" height="4" patternUnits="userSpaceOnUse"><rect width="4" height="4" fill="#fff"/><path d="M0 0h1v1H0zM2 2h1v1H2z" fill="#000"/></pattern><pattern id="dense" width="4" height="4" patternUnits="userSpaceOnUse"><rect width="4" height="4" fill="#fff"/><path d="M0 0h2v2H0zM2 2h2v2H2z" fill="#000"/></pattern><pattern id="rf-floor" width="48" height="48" patternUnits="userSpaceOnUse" x="9" y="18" patternTransform="matrix(.8660254 .28 -.8660254 .28 0 0)"><rect width="48" height="48" fill="#fff"/><path d="M5 7h1m13 12h1m13 12h1m8-23h1" stroke="#000" stroke-width=".65"/></pattern><g id="land-prop-1"><g transform="translate(0 1.657813) scale(0.7301)"><path d="M0 0v-10m0 6h-4m4 2h4" stroke="#000" stroke-width="2"/><path d="M-4-13h8v4h-8zM-2-15h4v8h-4z" fill="#fff" stroke="#000"/><rect x="-1" y="-12" width="2" height="2"/></g></g><g id="land-prop-0"><path d="M-3-12h6V2h-6z" fill="url(#dense)" stroke="#000"/><path d="M-15-12v-8h-5v-13h5v-9h9v-5H6v5h9v9h5v13h-5v8z" fill="#fff" stroke="#000" stroke-width="1.2"/><path d="M-14-14h8v-5h5v-5h6v-5h14v9h-5v6H5v5H-9z" fill="url(#dense)"/><path d="M-10-35h5v-5h5M5-38h6v5" fill="none" stroke="#000" stroke-width="1.5"/></g><g id="land-prop-7"><g transform="translate(0 3.597025) scale(0.4338)"><g stroke="#000" stroke-width="2" stroke-linejoin="miter"><polygon points="32.043,-17.04 6.062,-8.64 6.062,10.36 32.043,1.96" fill="url(#dither)"/><polygon points="6.062,-8.64 -32.043,-20.96 -32.043,-1.96 6.062,10.36" fill="#000" stroke="#fff" stroke-width="1.5"/><polygon points="-6.062,-29.36 32.043,-17.04 6.062,-8.64 -32.043,-20.96" fill="url(#dither)"/></g><g transform="translate(-10 -24) scale(.85)"><path d="M-2 0h4v-18h-4zM-2-6h-6v-4h6M2-3h6v-4H2" fill="#000"/><path d="M-6-22h12v8H-6zM-2-26h4v16h-4z" fill="#fff" stroke="#000" stroke-width="2"/><rect x="-2" y="-20" width="4" height="4" fill="#000"/></g><path d="M8-23v-20m0 8l-10-9m10 4l10-13M-6-19v-26m0 9l-10-8m10 1l7-9" stroke="#000" stroke-width="3" fill="none"/><path d="M-16-42h8v7h-8M15-55h7v7h-7" fill="#fff" stroke="#000" stroke-width="2"/></g></g><g id="land-prop-2"><g transform="translate(0 0.125) scale(1)"><path d="M0 0v-6m0 2h-4v-3h4m0 3h4v-5H1" fill="#fff" stroke="#000" stroke-width="1.4"/></g></g></defs><g transform="translate(6 6)"><g id="scene"><g id="terrain"><polygon points="473.43,237.8 457.85,242.84 457.85,253.84 473.43,248.8" fill="#000" stroke="#fff" stroke-width=".8"/><polygon points="473.43,251.24 457.85,256.28 457.85,267.28 473.43,262.24" fill="#000" stroke="#fff" stroke-width=".8"/><polygon points="473.43,264.68 457.85,269.72 457.85,280.72 473.43,275.68" fill="#000" stroke="#fff" stroke-width=".8"/><polygon points="473.43,278.12 437.06,289.88 437.06,300.88 473.43,289.12" fill="#000" stroke="#fff" stroke-width=".8"/><polyline points="473.43,286.12 437.06,297.88" fill="none" stroke="#fff" stroke-width=".5" stroke-dasharray="1 13"/><polygon points="452.65,298.28 421.47,308.36 421.47,319.36 452.65,309.28" fill="#000" stroke="#fff" stroke-width=".8"/><polyline points="452.65,306.28 421.47,316.36" fill="none" stroke="#fff" stroke-width=".5" stroke-dasharray="1 13"/><polygon points="421.47,308.36 411.08,308.36 411.08,319.36 421.47,319.36" fill="#000" stroke="#fff" stroke-width=".8"/><polygon points="411.08,308.36 395.49,303.32 395.49,314.32 411.08,319.36" fill="#000" stroke="#fff" stroke-width=".8"/><polygon points="395.49,303.32 338.33,321.8 338.33,332.8 395.49,314.32" fill="#000" stroke="#fff" stroke-width=".8"/><polyline points="395.49,311.32 338.33,329.8" fill="none" stroke="#fff" stroke-width=".5" stroke-dasharray="1 13"/><polygon points="338.33,321.8 327.94,321.8 327.94,332.8 338.33,332.8" fill="#000" stroke="#fff" stroke-width=".8"/><polygon points="327.94,321.8 312.35,316.76 312.35,327.76 327.94,332.8" fill="#000" stroke="#fff" stroke-width=".8"/><polygon points="312.35,316.76 275.98,328.52 275.98,339.52 312.35,327.76" fill="#000" stroke="#fff" stroke-width=".8"/><polyline points="312.35,324.76 275.98,336.52" fill="none" stroke="#fff" stroke-width=".5" stroke-dasharray="1 13"/><polygon points="275.98,328.52 265.59,328.52 265.59,339.52 275.98,339.52" fill="#000" stroke="#fff" stroke-width=".8"/><polygon points="265.59,328.52 250,323.48 250,334.48 265.59,339.52" fill="#000" stroke="#fff" stroke-width=".8"/><polygon points="250,323.48 234.41,328.52 234.41,339.52 250,334.48" fill="#000" stroke="#fff" stroke-width=".8"/><polygon points="234.41,328.52 224.02,328.52 224.02,339.52 234.41,339.52" fill="#000" stroke="#fff" stroke-width=".8"/><polygon points="224.02,328.52 208.43,323.48 208.43,334.48 224.02,339.52" fill="#000" stroke="#fff" stroke-width=".8"/><polygon points="208.43,323.48 192.84,328.52 192.84,339.52 208.43,334.48" fill="#000" stroke="#fff" stroke-width=".8"/><polygon points="192.84,328.52 182.45,328.52 182.45,339.52 192.84,339.52" fill="#000" stroke="#fff" stroke-width=".8"/><polygon points="182.45,328.52 151.27,318.44 151.27,329.44 182.45,339.52" fill="#000" stroke="#fff" stroke-width=".8"/><polyline points="182.45,336.52 151.27,326.44" fill="none" stroke="#fff" stroke-width=".5" stroke-dasharray="1 13"/><polygon points="208.43,296.6 166.86,283.16 166.86,294.16 208.43,307.6" fill="#000" stroke="#fff" stroke-width=".8"/><polyline points="208.43,304.6 166.86,291.16" fill="none" stroke="#fff" stroke-width=".5" stroke-dasharray="1 13"/><polygon points="166.86,283.16 130.49,294.92 130.49,305.92 166.86,294.16" fill="#000" stroke="#fff" stroke-width=".8"/><polyline points="166.86,291.16 130.49,302.92" fill="none" stroke="#fff" stroke-width=".5" stroke-dasharray="1 13"/><polygon points="130.49,294.92 120.1,294.92 120.1,305.92 130.49,305.92" fill="#000" stroke="#fff" stroke-width=".8"/><polygon points="120.1,294.92 104.51,289.88 104.51,300.88 120.1,305.92" fill="#000" stroke="#fff" stroke-width=".8"/><polygon points="104.51,289.88 68.13,301.64 68.13,312.64 104.51,300.88" fill="#000" stroke="#fff" stroke-width=".8"/><polyline points="104.51,297.88 68.13,309.64" fill="none" stroke="#fff" stroke-width=".5" stroke-dasharray="1 13"/><polygon points="68.13,301.64 57.74,301.64 57.74,312.64 68.13,312.64" fill="#000" stroke="#fff" stroke-width=".8"/><polygon points="57.74,301.64 26.57,291.56 26.57,302.56 57.74,312.64" fill="#000" stroke="#fff" stroke-width=".8"/><polyline points="57.74,309.64 26.57,299.56" fill="none" stroke="#fff" stroke-width=".5" stroke-dasharray="1 13"/><polygon points="42.15,283.16 26.57,278.12 26.57,289.12 42.15,294.16" fill="#000" stroke="#fff" stroke-width=".8"/><polygon points="42.15,269.72 26.57,264.68 26.57,275.68 42.15,280.72" fill="#000" stroke="#fff" stroke-width=".8"/><polygon points="62.94,249.56 47.35,244.52 47.35,255.52 62.94,260.56" fill="#000" stroke="#fff" stroke-width=".8"/><polygon points="125.29,215.96 109.7,210.92 109.7,221.92 125.29,226.96" fill="#000" stroke="#fff" stroke-width=".8"/><path d="M348.73 197.48L359.12 197.48L473.43 234.44L473.43 237.8L457.85 242.84L473.43 247.88L473.43 251.24L457.85 256.28L473.43 261.32L473.43 264.68L457.85 269.72L473.43 274.76L473.43 278.12L437.06 289.88L452.65 294.92L452.65 298.28L421.47 308.36L411.08 308.36L395.49 303.32L338.33 321.8L327.94 321.8L312.35 316.76L275.98 328.52L265.59 328.52L250 323.48L234.41 328.52L224.02 328.52L208.43 323.48L192.84 328.52L182.45 328.52L151.27 318.44L151.27 315.08L208.43 296.6L166.86 283.16L130.49 294.92L120.1 294.92L104.51 289.88L68.13 301.64L57.74 301.64L26.57 291.56L26.57 288.2L42.15 283.16L26.57 278.12L26.57 274.76L42.15 269.72L26.57 264.68L26.57 261.32L62.94 249.56L47.35 244.52L47.35 241.16L125.29 215.96L109.7 210.92L109.7 207.56L140.88 197.48L151.27 197.48L166.86 202.52L203.23 190.76L213.63 190.76L229.22 195.8L244.8 190.76L255.2 190.76L270.78 195.8L286.37 190.76L296.77 190.76L333.14 202.52Z" fill="url(#rf-floor)" fill-rule="evenodd" stroke="#000" stroke-width="1"/><path d="M270.78 236.12L312.35 249.56L250 269.72L208.43 256.28ZM229.22 276.44L270.78 289.88L250 296.6L208.43 283.16Z" fill="#000" stroke="#000" stroke-width="1.5"/><path d="M262.78 241.84h10m-3 4h9" stroke="#fff" stroke-width=".8"/><path d="M283.57 248.56h10m-3 4h9" stroke="#fff" stroke-width=".8"/><path d="M242 248.56h10m-3 4h9" stroke="#fff" stroke-width=".8"/><path d="M262.78 255.28h10m-3 4h9" stroke="#fff" stroke-width=".8"/><path d="M221.22 255.28h10m-3 4h9" stroke="#fff" stroke-width=".8"/><path d="M242 262h10m-3 4h9" stroke="#fff" stroke-width=".8"/><path d="M221.22 282.16h10m-3 4h9" stroke="#fff" stroke-width=".8"/><path d="M242 288.88h10m-3 4h9" stroke="#fff" stroke-width=".8"/><polygon points="478.63,224.12 457.85,230.84 457.85,242.84 478.63,236.12" fill="#000" stroke="#fff" stroke-width=".8"/><polyline points="478.63,233.12 457.85,239.84" fill="none" stroke="#fff" stroke-width=".5" stroke-dasharray="1 13"/><polygon points="478.63,237.56 457.85,244.28 457.85,256.28 478.63,249.56" fill="#000" stroke="#fff" stroke-width=".8"/><polyline points="478.63,246.56 457.85,253.28" fill="none" stroke="#fff" stroke-width=".5" stroke-dasharray="1 13"/><polygon points="457.85,244.28 437.06,237.56 437.06,249.56 457.85,256.28" fill="#000" stroke="#fff" stroke-width=".8"/><polyline points="457.85,253.28 437.06,246.56" fill="none" stroke="#fff" stroke-width=".5" stroke-dasharray="1 13"/><polygon points="437.06,237.56 416.28,244.28 416.28,256.28 437.06,249.56" fill="#000" stroke="#fff" stroke-width=".8"/><polyline points="437.06,246.56 416.28,253.28" fill="none" stroke="#fff" stroke-width=".5" stroke-dasharray="1 13"/><polygon points="416.28,244.28 374.71,230.84 374.71,242.84 416.28,256.28" fill="#000" stroke="#fff" stroke-width=".8"/><polyline points="416.28,253.28 374.71,239.84" fill="none" stroke="#fff" stroke-width=".5" stroke-dasharray="1 13"/><polygon points="374.71,230.84 353.92,237.56 353.92,249.56 374.71,242.84" fill="#000" stroke="#fff" stroke-width=".8"/><polyline points="374.71,239.84 353.92,246.56" fill="none" stroke="#fff" stroke-width=".5" stroke-dasharray="1 13"/><polygon points="353.92,237.56 250,203.96 250,215.96 353.92,249.56" fill="#000" stroke="#fff" stroke-width=".8"/><polyline points="353.92,246.56 250,212.96" fill="none" stroke="#fff" stroke-width=".5" stroke-dasharray="1 13"/><polygon points="270.78,197.24 250,190.52 250,202.52 270.78,209.24" fill="#000" stroke="#fff" stroke-width=".8"/><polyline points="270.78,206.24 250,199.52" fill="none" stroke="#fff" stroke-width=".5" stroke-dasharray="1 13"/><path d="M353.92 183.8L478.63 224.12L457.85 230.84L478.63 237.56L457.85 244.28L437.06 237.56L416.28 244.28L374.71 230.84L353.92 237.56L250 203.96L270.78 197.24L250 190.52L291.57 177.08L333.14 190.52Z" fill="url(#rf-floor)" fill-rule="evenodd" stroke="#000" stroke-width="1"/><polygon points="250,242.84 270.78,249.56 250,256.28 229.22,249.56" fill="#fff" stroke="#000" stroke-width="1.2"/><polyline points="253.46,243.96 232.68,250.68" fill="none" stroke="#000" stroke-width=".8"/><polyline points="260.39,246.2 239.61,252.92" fill="none" stroke="#000" stroke-width=".8"/><polyline points="267.32,248.44 246.54,255.16" fill="none" stroke="#000" stroke-width=".8"/><polygon points="270.78,249.56 291.57,256.28 270.78,263 250,256.28" fill="#fff" stroke="#000" stroke-width="1.2"/><polyline points="274.25,250.68 253.46,257.4" fill="none" stroke="#000" stroke-width=".8"/><polyline points="281.18,252.92 260.39,259.64" fill="none" stroke="#000" stroke-width=".8"/><polyline points="288.11,255.16 267.32,261.88" fill="none" stroke="#000" stroke-width=".8"/><polygon points="281.18,208.32 277.71,209.44 298.5,216.16 301.96,215.04" fill="#fff" stroke="#000" stroke-width=".6"/><polygon points="277.71,211.44 274.25,212.56 295.03,219.28 298.5,218.16" fill="#fff" stroke="#000" stroke-width=".6"/><polygon points="274.25,214.56 270.78,215.68 291.57,222.4 295.03,221.28" fill="#fff" stroke="#000" stroke-width=".6"/><polygon points="270.78,217.68 267.32,218.8 288.11,225.52 291.57,224.4" fill="#fff" stroke="#000" stroke-width=".6"/><polygon points="267.32,220.8 263.86,221.92 284.64,228.64 288.11,227.52" fill="#fff" stroke="#000" stroke-width=".6"/><polygon points="263.86,223.92 260.39,225.04 281.18,231.76 284.64,230.64" fill="#fff" stroke="#000" stroke-width=".6"/><polygon points="426.67,235.2 430.13,236.32 409.35,243.04 405.88,241.92" fill="#fff" stroke="#000" stroke-width=".6"/><polygon points="430.13,238.32 433.6,239.44 412.81,246.16 409.35,245.04" fill="#fff" stroke="#000" stroke-width=".6"/><polygon points="433.6,241.44 437.06,242.56 416.28,249.28 412.81,248.16" fill="#fff" stroke="#000" stroke-width=".6"/><polygon points="437.06,244.56 440.53,245.68 419.74,252.4 416.28,251.28" fill="#fff" stroke="#000" stroke-width=".6"/><polygon points="440.53,247.68 443.99,248.8 423.21,255.52 419.74,254.4" fill="#fff" stroke="#000" stroke-width=".6"/><polygon points="443.99,250.8 447.45,251.92 426.67,258.64 423.21,257.52" fill="#fff" stroke="#000" stroke-width=".6"/><polyline points="125.29,263 146.08,256.28" fill="none" stroke="#000" stroke-opacity=".4" stroke-width="1" stroke-dasharray="1 5"/><polyline points="146.08,256.28 166.86,249.56" fill="none" stroke="#000" stroke-opacity=".4" stroke-width="1" stroke-dasharray="1 5"/><polyline points="166.86,249.56 187.65,242.84" fill="none" stroke="#000" stroke-opacity=".4" stroke-width="1" stroke-dasharray="1 5"/><polyline points="187.65,242.84 208.43,236.12" fill="none" stroke="#000" stroke-opacity=".4" stroke-width="1" stroke-dasharray="1 5"/><polyline points="208.43,236.12 229.22,229.4" fill="none" stroke="#000" stroke-opacity=".4" stroke-width="1" stroke-dasharray="1 5"/><polyline points="229.22,229.4 250,222.68" fill="none" stroke="#000" stroke-opacity=".4" stroke-width="1" stroke-dasharray="1 5"/><polyline points="250,222.68 270.78,229.4" fill="none" stroke="#000" stroke-opacity=".4" stroke-width="1" stroke-dasharray="1 5"/><polyline points="291.57,210.68 312.35,203.96" fill="none" stroke="#000" stroke-opacity=".4" stroke-width="1" stroke-dasharray="1 5"/><polyline points="312.35,203.96 333.14,197.24" fill="none" stroke="#000" stroke-opacity=".4" stroke-width="1" stroke-dasharray="1 5"/><polyline points="333.14,197.24 353.92,203.96" fill="none" stroke="#000" stroke-opacity=".4" stroke-width="1" stroke-dasharray="1 5"/><polyline points="353.92,203.96 374.71,210.68" fill="none" stroke="#000" stroke-opacity=".4" stroke-width="1" stroke-dasharray="1 5"/><polyline points="374.71,210.68 395.49,217.4" fill="none" stroke="#000" stroke-opacity=".4" stroke-width="1" stroke-dasharray="1 5"/><polyline points="395.49,217.4 374.71,224.12" fill="none" stroke="#000" stroke-opacity=".4" stroke-width="1" stroke-dasharray="1 5"/><polyline points="374.71,224.12 395.49,230.84" fill="none" stroke="#000" stroke-opacity=".4" stroke-width="1" stroke-dasharray="1 5"/><polyline points="395.49,230.84 416.28,237.56" fill="none" stroke="#000" stroke-opacity=".4" stroke-width="1" stroke-dasharray="1 5"/><polyline points="437.06,256.28 457.85,263" fill="none" stroke="#000" stroke-opacity=".4" stroke-width="1" stroke-dasharray="1 5"/><polyline points="457.85,263 437.06,269.72" fill="none" stroke="#000" stroke-opacity=".4" stroke-width="1" stroke-dasharray="1 5"/><polyline points="437.06,269.72 416.28,276.44" fill="none" stroke="#000" stroke-opacity=".4" stroke-width="1" stroke-dasharray="1 5"/><polyline points="416.28,276.44 395.49,283.16" fill="none" stroke="#000" stroke-opacity=".4" stroke-width="1" stroke-dasharray="1 5"/><polyline points="395.49,283.16 374.71,276.44" fill="none" stroke="#000" stroke-opacity=".4" stroke-width="1" stroke-dasharray="1 5"/><polyline points="374.71,276.44 353.92,269.72" fill="none" stroke="#000" stroke-opacity=".4" stroke-width="1" stroke-dasharray="1 5"/><polyline points="353.92,269.72 333.14,276.44" fill="none" stroke="#000" stroke-opacity=".4" stroke-width="1" stroke-dasharray="1 5"/><polyline points="333.14,276.44 312.35,283.16" fill="none" stroke="#000" stroke-opacity=".4" stroke-width="1" stroke-dasharray="1 5"/><polyline points="312.35,283.16 291.57,289.88" fill="none" stroke="#000" stroke-opacity=".4" stroke-width="1" stroke-dasharray="1 5"/><polyline points="291.57,289.88 270.78,296.6" fill="none" stroke="#000" stroke-opacity=".4" stroke-width="1" stroke-dasharray="1 5"/><polyline points="291.57,289.88 270.78,283.16" fill="none" stroke="#000" stroke-opacity=".4" stroke-width="1" stroke-dasharray="1 5"/><polyline points="270.78,283.16 250,276.44" fill="none" stroke="#000" stroke-opacity=".4" stroke-width="1" stroke-dasharray="1 5"/><polyline points="250,276.44 229.22,269.72" fill="none" stroke="#000" stroke-opacity=".4" stroke-width="1" stroke-dasharray="1 5"/><polyline points="229.22,269.72 208.43,263" fill="none" stroke="#000" stroke-opacity=".4" stroke-width="1" stroke-dasharray="1 5"/><polyline points="208.43,263 187.65,256.28" fill="none" stroke="#000" stroke-opacity=".4" stroke-width="1" stroke-dasharray="1 5"/><polyline points="187.65,256.28 166.86,263" fill="none" stroke="#000" stroke-opacity=".4" stroke-width="1" stroke-dasharray="1 5"/><polyline points="166.86,263 146.08,269.72" fill="none" stroke="#000" stroke-opacity=".4" stroke-width="1" stroke-dasharray="1 5"/><polyline points="146.08,269.72 125.29,276.44" fill="none" stroke="#000" stroke-opacity=".4" stroke-width="1" stroke-dasharray="1 5"/><polyline points="187.65,256.28 166.86,249.56" fill="none" stroke="#000" stroke-opacity=".4" stroke-width="1" stroke-dasharray="1 5"/><polyline points="229.22,229.4 208.43,222.68" fill="none" stroke="#000" stroke-opacity=".4" stroke-width="1" stroke-dasharray="1 5"/><polyline points="229.22,229.4 250,236.12" fill="none" stroke="#000" stroke-opacity=".4" stroke-width="1" stroke-dasharray="1 5"/><polyline points="250,236.12 229.22,242.84" fill="none" stroke="#000" stroke-opacity=".4" stroke-width="1" stroke-dasharray="1 5"/><polyline points="229.22,242.84 208.43,236.12" fill="none" stroke="#000" stroke-opacity=".4" stroke-width="1" stroke-dasharray="1 5"/></g></g></g><g id="ground-details" fill="none" stroke="#000" stroke-width=".5"><path data-mark="0" transform="translate(256 281.94)" d="M-1.5 0h1m1 .5h1"/><path data-mark="1" transform="translate(465.85 268.50)" d="M-1.5 0h1m1 .5h1"/><path data-mark="2" transform="translate(50.15 269)" d="M-1 0h2m-1-.75v1.5"/><path data-mark="3" transform="translate(317.35 197.02)" d="M-1.5 0h1m1 .5h1"/><path data-mark="4" transform="translate(153.08 209.02)" d="M-1 0h2m-1-.75v1.5"/><path data-mark="5" transform="translate(359.92 315.54)" d="M-1 0h2m-1-.75v1.5"/><path data-mark="6" transform="translate(171.86 322.76)" d="M-1.5 0h1m1 .5h1"/><path data-mark="9" transform="translate(233.22 222.46)" d="M-1.5 0h1m1 .5h1"/><path data-mark="10" transform="translate(274.78 328.98)" d="M-1 0h2m-1-.75v1.5"/><path data-mark="11" transform="translate(379.71 217.18)" d="M-1.5 0h1m1 .5h1"/><path data-mark="12" transform="translate(403.49 275.72)" d="M-1 0h2m-1-.75v1.5"/><path data-mark="14" transform="translate(108.51 289.66)" d="M-1.5 0h1m1 .5h1"/><path data-mark="15" transform="translate(443.06 302.10)" d="M-1.5 0h1m1 .5h1"/></g><g id="objects"><g data-slot="0" data-asset="1" data-prop="flower" data-depth="-240" transform="translate(256 201.80) scale(0.90 0.90)"><use href="#land-prop-1"/></g><g data-slot="1" data-asset="0" data-prop="tree" data-depth="-216" transform="translate(359.92 196.52) scale(0.95 0.95)"><use href="#land-prop-0"/></g><g data-slot="2" data-asset="0" data-prop="tree" data-depth="-216" transform="translate(193.65 208.52) scale(0.95 0.95)"><use href="#land-prop-0"/></g><g data-slot="3" data-asset="0" data-prop="tree" data-depth="-216" transform="translate(276.78 196.52) scale(-0.95 0.95)"><use href="#land-prop-0"/></g><g data-slot="5" data-asset="7" data-prop="planter" data-depth="-120" transform="translate(193.65 235.40) scale(-1 1)"><use href="#land-prop-7"/></g><g data-slot="6" data-asset="0" data-prop="tree" data-depth="-96" transform="translate(422.28 230.12) scale(0.95 0.95)"><use href="#land-prop-0"/></g><g data-slot="7" data-asset="1" data-prop="flower" data-depth="-96" transform="translate(339.14 230.12) scale(-0.90 0.90)"><use href="#land-prop-1"/></g><g data-slot="8" data-asset="0" data-prop="tree" data-depth="-48" transform="translate(463.85 243.56) scale(0.95 0.95)"><use href="#land-prop-0"/></g><g data-slot="10" data-asset="1" data-prop="flower" data-depth="-24" transform="translate(110.51 262.28) scale(-0.90 0.90)"><use href="#land-prop-1"/></g><g data-slot="12" data-asset="1" data-prop="flower" data-depth="72" transform="translate(68.94 289.16) scale(-0.90 0.90)"><use href="#land-prop-1"/></g><g data-slot="13" data-asset="1" data-prop="flower" data-depth="72" transform="translate(193.65 289.16) scale(-0.90 0.90)"><use href="#land-prop-1"/></g><g data-slot="14" data-asset="2" data-prop="sprout" data-depth="120" transform="translate(401.49 302.60) scale(0.66 0.66)"><use href="#land-prop-2"/></g><g data-slot="15" data-asset="7" data-prop="planter" data-depth="168" transform="translate(235.22 316.04) scale(1 1)"><use href="#land-prop-7"/></g></g></g></svg>